:SAMPLES-PER-SECOND 30
:FULLY-SPECIFIED
:DEGREES
491
root  59.6354 35.8767 0.150769 16.2031 81.8868 22.1465
RightUpLeg  8.50291 -1.66118 -9.76316
RightLeg  50.8313 1.58023 1.70094
RightFoot  -11.9229 0.102179 15.6986
RightToes  5.82063e-011 0 -3.6325e-017
Spine  7.45415 1.49727 1.43455
Spine1  2.63573 3.33636 -10.2538
HEad  -1.73518 1.62244 -2.24111
LeftShoulder1  0.355721 1.86586 -14.6917
LeftArm  -11.5247 -50.6078 -47.3712
LeftForeArm  -10.2511 -26.7571 -6.27067
LeftHand  0.00889064 10.2757 1.48176
RightShoulder  0.344244 -1.69855 12.3058
RightArm  -5.46233 55.9255 46.4966
RightForeArm  -33.18 7.28996 3.36976
RightHand  -0.554853 5.17335 -6.40432
LeftUpLeg  -27.5699 7.85607 -1.30163
LeftLeg  27.6491 -1.71815 -0.631919
LeftFoot  7.61846 -0.430117 2.28629
LeftToes  -1.20963e-009 8.6283e-011 2.04439e-011
492
root  60.4345 36.0378 -0.0978871 14.9599 80.6063 20.814
RightUpLeg  2.10653 -0.738695 -10.7842
RightLeg  59.6935 1.33976 1.97448
RightFoot  -1.42381 -0.955854 10.3339
RightToes  5.82063e-011 0 -3.6325e-017
Spine  10.383 1.4714 0.780934
Spine1  0.935205 3.12885 -10.1982
HEad  -3.30509 2.3509 -3.84862
LeftShoulder1  0.296571 2.07515 -13.7721
LeftArm  -11.9315 -53.0803 -46.9534
LeftForeArm  -12.1837 -26.06 -6.1992
LeftHand  -0.00886302 10.1976 1.08177
RightShoulder  0.517612 -0.578538 10.5069
RightArm  -5.42997 59.3245 48.0617
RightForeArm  -35.0857 4.16673 3.01879
RightHand  -0.674155 6.046 -7.14806
LeftUpLeg  -26.7498 8.8725 -1.83729
LeftLeg  28.7774 -1.28783 -0.412874
LeftFoot  5.64432 -0.440191 2.72236
LeftToes  -1.20963e-009 8.6283e-011 2.04439e-011
493
root  61.1155 36.1887 -0.277127 12.4839 80.0273 18.0415
RightUpLeg  -3.25689 -0.505134 -10.859
RightLeg  65.4041 0.990201 1.7595
RightFoot  -1.58237 -0.826467 9.51395
RightToes  5.82063e-011 0 -3.6325e-017
Spine  11.9719 1.60585 1.14775
Spine1  1.33451 3.40729 -10.9173
HEad  -5.40038 1.98659 -4.84954
LeftShoulder1  0.362698 1.66763 -12.7575
LeftArm  -12.5847 -55.7606 -47.5868
LeftForeArm  -11.4741 -24.8679 -5.88964
LeftHand  -0.0194901 10.2228 0.828746
RightShoulder  0.538969 -0.250133 9.22028
RightArm  -5.0721 62.2494 48.8271
RightForeArm  -39.8348 2.19182 3.16792
RightHand  -0.981193 8.95115 -8.30224
LeftUpLeg  -26.2532 9.46229 -1.91487
LeftLeg  29.6083 -0.827279 -0.15204
LeftFoot  4.19357 -0.493783 3.42756
LeftToes  -1.20963e-009 8.6283e-011 2.04439e-011
494
root  61.7531 36.4659 -0.397861 9.92295 80.657 15.0586
RightUpLeg  -7.8167 -1.49577 -10.3882
RightLeg  67.9221 0.85736 1.62097
RightFoot  -3.40741 -0.679997 9.45615
RightToes  5.82063e-011 0 -3.6325e-017
Spine  12.795 1.40983 1.65075
Spine1  2.38527 3.40054 -10.9391
HEad  -6.19613 0.737175 -4.97374
LeftShoulder1  0.459885 1.03056 -11.3557
LeftArm  -12.2605 -58.2696 -49.0007
LeftForeArm  -10.5765 -23.2472 -5.47475
LeftHand  -0.0508263 10.0242 0.0977852
RightShoulder  0.507749 -0.260874 8.24617
RightArm  -6.27923 63.7591 48.3693
RightForeArm  -42.4824 2.73479 3.05461
RightHand  -1.17709 9.26005 -9.67479
LeftUpLeg  -25.2096 9.2695 -1.56043
LeftLeg  28.97 -1.27491 -0.406873
LeftFoot  3.31877 -0.486514 3.62352
LeftToes  -1.20963e-009 8.6283e-011 2.04439e-011
495
root  62.3444 36.7688 -0.485848 8.13707 81.4619 12.654
RightUpLeg  -11.957 -2.60306 -9.86116
RightLeg  67.7559 0.480507 0.602129
RightFoot  -4.76439 -0.601807 9.90038
RightToes  5.82063e-011 0 -3.6325e-017
Spine  14.9323 0.864458 0.313705
Spine1  0.831082 2.25534 -8.90248
HEad  -5.8536 1.70778 -5.23391
LeftShoulder1  0.35468 1.49553 -10.2888
LeftArm  -10.6139 -59.5827 -50.1432
LeftForeArm  -11.642 -21.5287 -5.12778
LeftHand  -0.0642457 10.2538 -0.190757
RightShoulder  0.582056 0.342155 7.61546
RightArm  -5.01341 64.8261 49.1235
RightForeArm  -42.8908 3.40643 3.44295
RightHand  -1.27456 9.72091 -10.1451
LeftUpLeg  -24.217 9.02016 -1.40027
LeftLeg  27.733 -1.66406 -0.594011
LeftFoot  2.9492 -0.49574 3.8106
LeftToes  -1.20963e-009 8.6283e-011 2.04439e-011
